<?xml version="1.0" encoding="UTF-8"?>
<svg xmlns="http://www.w3.org/2000/svg" width="1400" height="720" viewBox="0 0 1400 720" font-family="'Apple SD Gothic Neo', 'Noto Sans KR', sans-serif">
<rect width="1400" height="720" fill="#ffffff"/>
<text x="700" y="54" text-anchor="middle" font-size="32" font-weight="700" fill="#24334b">최대 힙: 완전 이진 트리와 배열 표현</text>
<g><line x1="700" y1="155" x2="470" y2="275" style="stroke:#64748b;stroke-width:5"/><line x1="700" y1="155" x2="930" y2="275" style="stroke:#64748b;stroke-width:5"/><line x1="470" y1="325" x2="340" y2="435" style="stroke:#64748b;stroke-width:5"/><line x1="470" y1="325" x2="570" y2="435" style="stroke:#64748b;stroke-width:5"/><line x1="930" y1="325" x2="830" y2="435" style="stroke:#64748b;stroke-width:5"/><line x1="930" y1="325" x2="1060" y2="435" style="stroke:#64748b;stroke-width:5"/></g>
<g fill="#dce8ff" stroke="#4f6f9f" stroke-width="3"><circle cx="700" cy="135" r="48"/><circle cx="470" cy="295" r="46"/><circle cx="930" cy="295" r="46"/><circle cx="340" cy="465" r="44"/><circle cx="570" cy="465" r="44"/><circle cx="830" cy="465" r="44"/><circle cx="1060" cy="465" r="44"/></g>
<g font-size="26" font-weight="700" fill="#24334b" text-anchor="middle"><text x="700" y="144">90</text><text x="470" y="304">70</text><text x="930" y="304">60</text><text x="340" y="474">40</text><text x="570" y="474">20</text><text x="830" y="474">50</text><text x="1060" y="474">10</text></g>
<text x="170" y="600" font-size="23" font-weight="700" fill="#315b9b">배열</text>
<g stroke="#64748b" stroke-width="2"><rect x="260" y="555" width="120" height="72" fill="#fff1d6"/><rect x="380" y="555" width="120" height="72" fill="#eaf1ff"/><rect x="500" y="555" width="120" height="72" fill="#eaf1ff"/><rect x="620" y="555" width="120" height="72" fill="#f8fafc"/><rect x="740" y="555" width="120" height="72" fill="#f8fafc"/><rect x="860" y="555" width="120" height="72" fill="#f8fafc"/><rect x="980" y="555" width="120" height="72" fill="#f8fafc"/></g>
<g font-size="24" fill="#24334b" text-anchor="middle"><text x="320" y="598">90</text><text x="440" y="598">70</text><text x="560" y="598">60</text><text x="680" y="598">40</text><text x="800" y="598">20</text><text x="920" y="598">50</text><text x="1040" y="598">10</text></g>
<g font-size="18" fill="#64748b" text-anchor="middle"><text x="320" y="655">0</text><text x="440" y="655">1</text><text x="560" y="655">2</text><text x="680" y="655">3</text><text x="800" y="655">4</text><text x="920" y="655">5</text><text x="1040" y="655">6</text><text x="1155" y="600">인덱스</text></g>
</svg>
